<?xml version="1.0" standalone="no"?>
<!DOCTYPE svg PUBLIC "-//W3C//DTD SVG 20010904//EN"
 "http://www.w3.org/TR/2001/REC-SVG-20010904/DTD/svg10.dtd">
<svg version="1.0" xmlns="http://www.w3.org/2000/svg"
 width="300.000000pt" height="300.000000pt" viewBox="0 0 300.000000 300.000000"
 preserveAspectRatio="xMidYMid meet">
<metadata>
Created by potrace 1.10, written by Peter Selinger 2001-2011
</metadata>
<g transform="translate(0.000000,300.000000) scale(0.100000,-0.100000)"
fill="#000000" stroke="none">
<path d="M485 2980 c-74 -30 -403 -360 -439 -440 -42 -93 -52 -191 -32 -321
55 -354 291 -782 662 -1199 467 -525 1037 -909 1483 -1000 158 -32 289 -22
394 31 57 30 368 337 400 397 50 94 54 199 11 284 -28 55 -482 506 -539 535
-149 77 -326 7 -389 -153 -45 -114 -144 -184 -261 -184 -318 0 -856 540 -855
859 0 56 35 135 80 179 18 18 69 51 114 73 98 49 119 67 153 138 38 77 38 165
1 241 -39 79 -480 519 -553 551 -70 31 -166 35 -230 9z"/>
</g>
</svg>
