 <svg  version="1.0" xmlns="http://www.w3.org/2000/svg"  width="900.000000pt" height="900.000000pt" viewBox="0 0 900.000000 900.000000"  preserveAspectRatio="xMidYMid meet">  <g transform="translate(0.000000,900.000000) scale(0.100000,-0.100000)" fill="#64b161" stroke="none"> <path d="M4210 8043 c-41 -2 -79 -8 -84 -13 -6 -6 -38 -10 -71 -10 -34 0 -84 -7 -111 -15 -27 -8 -75 -18 -107 -21 -31 -4 -60 -11 -63 -15 -3 -5 -28 -9 -56 -9 -27 0 -64 -6 -81 -13 -53 -23 -134 -47 -154 -47 -11 0 -28 -7 -39 -15 -10 -8 -33 -15 -50 -15 -16 0 -39 -7 -50 -15 -10 -8 -25 -15 -32 -15 -13 0 -40 -11 -117 -45 -16 -7 -42 -16 -57 -19 -16 -4 -28 -11 -28 -16 0 -6 -8 -10 -18 -10 -16 0 -85 -32 -172 -79 -8 -5 -35 -18 -60 -30 -42 -21 -72 -37 -169 -93 -92 -54 -341 -228 -382 -267 -9 -9 -47 -41 -84 -71 -78 -63 -308 -290 -375 -370 -25 -30 -59 -70 -76 -90 -45 -51 -231 -309 -252 -349 -20 -38 -55 -95 -62 -101 -4 -3 -24 -41 -46 -85 -21 -44 -42 -82 -45 -85 -6 -5 -30 -56 -74 -155 -15 -33 -35 -77 -46 -98 -10 -21 -19 -45 -19 -55 0 -9 -7 -26 -15 -36 -8 -11 -15 -32 -15 -47 0 -15 -4 -30 -9 -34 -5 -3 -19 -38 -31 -78 -11 -39 -25 -79 -29 -87 -5 -9 -11 -31 -15 -50 -4 -19 -13 -57 -21 -85 -20 -70 -45 -189 -45 -212 0 -10 -5 -24 -11 -30 -5 -5 -14 -59 -19 -119 -5 -60 -14 -145 -19 -189 -12 -106 -13 -527 -1 -640 6 -49 14 -140 19 -202 5 -61 13 -117 17 -125 10 -14 29 -98 44 -187 5 -29 13 -58 19 -64 6 -6 11 -26 11 -44 0 -18 6 -47 14 -65 7 -18 24 -66 37 -106 13 -41 27 -76 31 -79 5 -2 8 -16 8 -31 0 -15 6 -36 14 -47 7 -11 17 -31 21 -45 4 -14 15 -44 26 -68 10 -23 28 -63 39 -90 12 -26 28 -60 37 -77 9 -16 32 -61 51 -100 20 -38 40 -71 44 -73 4 -2 8 -12 8 -21 0 -16 8 -29 50 -78 5 -7 10 -19 10 -26 0 -8 7 -20 15 -27 8 -7 15 -17 15 -22 0 -9 39 -69 52 -78 19 -14 28 -64 18 -96 -19 -62 -28 -99 -35 -132 -4 -18 -13 -45 -21 -60 -8 -15 -14 -43 -14 -62 0 -19 -7 -44 -15 -54 -8 -11 -15 -33 -15 -49 0 -30 -27 -125 -42 -143 -4 -6 -11 -33 -15 -60 -3 -26 -12 -59 -20 -74 -7 -14 -13 -38 -13 -54 0 -27 -24 -113 -41 -148 -5 -9 -12 -36 -15 -60 -4 -24 -10 -47 -14 -53 -4 -5 -11 -26 -14 -45 -7 -38 -29 -119 -52 -188 -11 -37 -11 -44 1 -48 8 -3 27 1 43 8 15 8 62 23 103 32 41 10 92 25 114 32 23 8 56 14 76 14 19 0 43 6 54 14 19 13 58 24 165 47 24 5 49 14 54 19 6 6 26 10 46 10 19 0 46 6 61 13 14 8 48 16 76 20 28 3 60 10 70 15 36 18 121 42 150 42 16 0 37 6 48 14 11 7 44 16 74 19 29 4 59 11 66 17 7 6 35 13 61 16 44 5 55 2 102 -30 30 -20 58 -36 64 -36 5 0 24 -11 41 -23 18 -13 78 -47 135 -75 56 -28 112 -58 124 -67 13 -8 32 -15 44 -15 12 0 27 -7 34 -15 7 -8 19 -15 27 -15 7 0 42 -13 76 -28 34 -16 89 -37 122 -47 33 -10 74 -24 92 -32 17 -7 38 -13 46 -13 9 0 18 -4 21 -9 3 -4 25 -11 48 -15 23 -4 47 -11 53 -16 7 -6 38 -14 71 -19 32 -5 113 -21 179 -35 66 -14 131 -26 145 -26 15 0 31 -5 38 -12 11 -11 294 -30 487 -31 143 -1 505 20 540 32 29 10 105 24 211 41 28 4 61 13 72 19 11 6 36 11 54 11 18 0 46 7 62 15 15 8 37 15 47 15 23 0 140 39 154 51 5 5 18 9 30 9 11 0 33 7 49 15 15 8 39 15 51 15 13 0 30 6 37 13 7 7 38 22 68 32 30 11 62 25 71 32 8 7 27 13 41 13 14 0 30 6 36 13 6 7 60 37 119 67 59 29 110 56 113 59 7 8 38 27 88 52 23 11 48 26 55 33 18 16 107 76 113 76 3 0 32 20 64 45 32 25 63 45 69 45 6 0 11 4 11 8 0 5 21 24 47 43 26 18 55 40 63 49 9 8 51 46 93 83 131 117 305 295 367 376 14 18 43 54 64 80 22 25 54 69 72 96 17 28 41 61 53 75 11 14 24 30 29 35 4 6 25 39 46 75 21 36 42 67 46 70 5 3 14 17 19 30 6 14 15 32 19 40 26 46 33 59 54 100 13 25 29 51 36 58 6 7 12 22 12 31 0 10 7 24 15 31 8 7 15 18 15 24 0 6 13 38 29 71 43 89 61 134 61 150 0 8 11 34 24 59 13 24 27 61 31 82 3 21 13 47 21 58 8 11 14 34 14 51 0 17 4 35 10 41 5 5 14 30 19 54 16 73 32 134 42 155 6 12 14 55 19 95 5 41 13 100 19 130 36 200 43 288 42 579 0 224 -4 315 -16 374 -8 43 -15 101 -15 128 0 26 -6 68 -14 91 -8 24 -16 73 -19 111 -3 37 -9 73 -15 80 -6 6 -13 33 -17 60 -4 26 -11 50 -16 53 -5 3 -9 17 -9 32 0 15 -7 40 -15 56 -8 15 -15 40 -15 55 0 15 -6 35 -13 46 -8 11 -17 35 -20 53 -4 18 -18 56 -32 86 -14 29 -25 59 -25 65 0 16 -18 56 -76 177 -24 50 -44 98 -44 106 0 9 -7 21 -15 28 -9 7 -25 32 -36 54 -10 23 -23 48 -29 56 -5 8 -32 53 -60 100 -72 121 -71 119 -117 182 -24 31 -43 60 -43 64 0 4 -20 31 -45 60 -25 28 -45 55 -45 58 0 3 -8 14 -17 24 -10 10 -36 40 -58 67 -32 39 -174 192 -231 249 -115 113 -294 261 -419 346 -36 25 -74 52 -83 60 -9 9 -34 24 -54 35 -21 11 -38 23 -38 26 0 4 -12 12 -27 18 -16 6 -35 15 -43 21 -51 33 -169 100 -178 100 -10 0 -72 30 -82 40 -3 3 -27 15 -55 28 -27 13 -62 30 -77 38 -14 8 -33 14 -42 14 -9 0 -24 4 -34 10 -35 19 -111 50 -124 50 -8 0 -18 4 -23 9 -6 6 -28 14 -50 20 -22 5 -53 14 -70 20 -16 5 -57 17 -90 26 -33 9 -74 23 -92 31 -17 8 -50 14 -73 14 -23 0 -49 4 -59 10 -10 5 -47 12 -82 16 -35 3 -72 10 -82 16 -18 9 -116 22 -287 37 -92 9 -439 11 -590 4z m-975 -1524 c39 -6 80 -17 92 -25 29 -18 93 -82 93 -93 0 -5 7 -14 15 -21 8 -7 15 -20 15 -30 0 -10 7 -23 15 -30 8 -7 15 -25 15 -41 0 -15 4 -30 9 -33 12 -8 51 -88 51 -107 0 -8 7 -23 15 -33 8 -11 15 -30 15 -42 0 -12 6 -27 14 -33 8 -7 18 -26 22 -43 3 -17 17 -51 30 -76 13 -25 24 -55 24 -67 0 -13 7 -28 15 -35 8 -7 15 -19 15 -27 0 -7 13 -42 29 -76 15 -34 31 -74 35 -89 3 -16 11 -28 16 -28 6 0 10 -13 10 -29 0 -16 8 -37 18 -47 13 -14 17 -35 17 -95 0 -59 -4 -81 -17 -96 -10 -11 -18 -27 -18 -35 0 -9 -7 -18 -15 -22 -8 -3 -15 -11 -15 -18 0 -7 -10 -24 -22 -38 -13 -14 -34 -41 -48 -61 -34 -50 -72 -98 -92 -120 -10 -11 -18 -21 -18 -24 0 -3 -8 -13 -17 -23 -75 -79 -113 -159 -83 -177 6 -3 10 -15 10 -25 0 -10 6 -25 14 -33 8 -7 23 -29 33 -48 41 -73 58 -99 66 -99 4 0 7 -5 7 -11 0 -8 38 -65 78 -114 4 -5 35 -46 69 -90 63 -82 81 -103 192 -221 59 -62 137 -136 217 -204 16 -13 67 -53 114 -87 47 -35 92 -70 101 -78 9 -8 21 -15 28 -15 7 0 30 -12 50 -27 49 -38 60 -44 181 -105 58 -29 107 -56 110 -60 5 -6 70 -32 115 -45 11 -4 38 -18 60 -32 28 -17 58 -26 101 -29 l61 -4 56 58 c31 33 66 72 79 89 12 16 35 42 50 57 16 16 28 32 28 36 0 4 14 23 31 41 16 18 63 77 104 130 84 111 101 126 150 140 38 10 145 -4 145 -19 0 -4 12 -11 28 -14 15 -4 41 -13 57 -21 17 -7 59 -27 95 -43 36 -17 72 -33 80 -36 8 -3 22 -10 30 -15 8 -6 50 -26 92 -46 42 -19 80 -40 83 -45 3 -6 17 -10 31 -10 13 0 24 -4 24 -10 0 -5 9 -10 19 -10 11 0 26 -6 33 -13 18 -18 96 -57 113 -57 8 0 15 -4 15 -10 0 -5 5 -10 11 -10 13 0 101 -41 109 -51 3 -4 16 -10 29 -14 26 -8 29 -10 80 -53 27 -22 35 -39 42 -82 9 -58 2 -228 -11 -245 -4 -5 -11 -37 -15 -70 -4 -33 -13 -68 -21 -79 -8 -11 -14 -30 -14 -42 0 -31 -29 -92 -72 -151 -45 -60 -183 -192 -215 -204 -13 -5 -23 -13 -23 -19 0 -5 -6 -10 -14 -10 -8 0 -21 -6 -28 -12 -32 -30 -206 -118 -232 -118 -9 0 -16 -3 -16 -7 0 -14 -113 -41 -200 -49 -209 -19 -458 1 -565 46 -11 5 -40 12 -65 16 -25 3 -50 10 -56 15 -6 5 -31 13 -55 18 -45 9 -89 24 -146 48 -17 7 -35 13 -41 13 -5 0 -23 7 -38 15 -16 8 -38 15 -50 15 -11 0 -24 4 -30 9 -5 4 -34 16 -64 25 -30 10 -67 26 -82 37 -15 10 -38 19 -51 19 -12 0 -27 4 -33 9 -5 5 -36 19 -68 30 -33 11 -62 25 -65 30 -3 4 -17 12 -31 16 -13 4 -30 14 -38 21 -7 8 -21 14 -30 15 -9 0 -44 18 -77 39 -33 22 -80 49 -105 62 -25 13 -56 33 -70 46 -14 12 -35 25 -47 28 -12 3 -24 12 -27 20 -3 8 -12 14 -21 14 -8 0 -15 4 -15 9 0 5 -8 12 -19 16 -10 3 -31 19 -47 35 -16 16 -33 30 -38 30 -8 0 -84 56 -101 76 -5 6 -19 17 -31 25 -85 57 -445 414 -578 574 -27 33 -62 73 -78 89 -15 17 -28 33 -28 37 0 4 -6 14 -13 21 -10 10 -97 124 -185 243 -4 6 -25 37 -47 70 -22 33 -43 62 -47 63 -5 2 -8 10 -8 17 0 8 -6 18 -12 22 -13 8 -48 59 -124 178 -49 78 -164 305 -164 326 0 8 -7 24 -15 35 -8 10 -15 26 -15 34 0 8 -7 28 -15 44 -8 15 -15 38 -15 50 0 12 -7 31 -15 43 -15 22 -28 83 -46 228 -11 86 -4 366 10 394 5 9 13 39 19 66 5 28 15 66 22 85 27 74 64 160 82 190 4 8 11 22 15 30 27 63 249 320 308 357 114 72 267 93 460 62z"/> </g> </svg> 